STARTFONT 2.1
COMMENT
COMMENT Converted from OpenType font "uvnbaisau_regular.ttf" by "otf2bdf 3.0".
COMMENT
FONT -FreeType-UVN Bai Sau-Bold-R-Normal--10-70-100-100-P-53-ISO10646-1
SIZE 7 100 100
FONTBOUNDINGBOX 13 14 -1 -3
STARTPROPERTIES 19
FOUNDRY "FreeType"
FAMILY_NAME "UVN Bai Sau"
WEIGHT_NAME "Bold"
SLANT "R"
SETWIDTH_NAME "Normal"
ADD_STYLE_NAME ""
PIXEL_SIZE 10
POINT_SIZE 70
RESOLUTION_X 100
RESOLUTION_Y 100
SPACING "P"
AVERAGE_WIDTH 53
CHARSET_REGISTRY "ISO10646"
CHARSET_ENCODING "1"
FONT_ASCENT 11
FONT_DESCENT 2
COPYRIGHT "(c) Copyright 2001 by Tom Truong. All Rights Reserved"
_OTF_FONTFILE "uvnbaisau_regular.ttf"
_OTF_PSNAME "UVNBaiSauBold"
ENDPROPERTIES
CHARS 383
STARTCHAR 0020
ENCODING 32
SWIDTH 205 0
DWIDTH 2 0
BBX 0 0 0 0
BITMAP
ENDCHAR
STARTCHAR 0021
ENCODING 33
SWIDTH 308 0
DWIDTH 3 0
BBX 2 7 1 0
BITMAP
80
80
80
80
80
80
C0
ENDCHAR
STARTCHAR 0022
ENCODING 34
SWIDTH 308 0
DWIDTH 3 0
BBX 3 3 0 4
BITMAP
A0
A0
A0
ENDCHAR
STARTCHAR 0023
ENCODING 35
SWIDTH 720 0
DWIDTH 7 0
BBX 7 7 0 0
BITMAP
16
14
7E
2C
FC
48
50
ENDCHAR
STARTCHAR 0024
ENCODING 36
SWIDTH 514 0
DWIDTH 5 0
BBX 4 7 1 0
BITMAP
40
E0
C0
60
30
F0
40
ENDCHAR
STARTCHAR 0025
ENCODING 37
SWIDTH 822 0
DWIDTH 8 0
BBX 8 7 0 0
BITMAP
62
D4
D8
68
17
15
27
ENDCHAR
STARTCHAR 0026
ENCODING 38
SWIDTH 720 0
DWIDTH 7 0
BBX 7 7 0 0
BITMAP
78
78
76
7E
DE
6C
3E
ENDCHAR
STARTCHAR 0027
ENCODING 39
SWIDTH 102 0
DWIDTH 1 0
BBX 1 3 0 4
BITMAP
80
80
80
ENDCHAR
STARTCHAR 0028
ENCODING 40
SWIDTH 308 0
DWIDTH 3 0
BBX 3 9 1 -2
BITMAP
40
40
80
80
80
80
80
C0
60
ENDCHAR
STARTCHAR 0029
ENCODING 41
SWIDTH 308 0
DWIDTH 3 0
BBX 3 8 0 -1
BITMAP
40
60
20
20
20
20
40
C0
ENDCHAR
STARTCHAR 002A
ENCODING 42
SWIDTH 411 0
DWIDTH 4 0
BBX 3 4 1 3
BITMAP
40
E0
E0
40
ENDCHAR
STARTCHAR 002B
ENCODING 43
SWIDTH 822 0
DWIDTH 8 0
BBX 6 6 1 0
BITMAP
30
30
30
FC
30
30
ENDCHAR
STARTCHAR 002C
ENCODING 44
SWIDTH 205 0
DWIDTH 2 0
BBX 2 2 0 -1
BITMAP
40
C0
ENDCHAR
STARTCHAR 002D
ENCODING 45
SWIDTH 308 0
DWIDTH 3 0
BBX 3 1 0 2
BITMAP
E0
ENDCHAR
STARTCHAR 002E
ENCODING 46
SWIDTH 205 0
DWIDTH 2 0
BBX 2 2 0 0
BITMAP
40
C0
ENDCHAR
STARTCHAR 002F
ENCODING 47
SWIDTH 205 0
DWIDTH 2 0
BBX 3 8 0 -1
BITMAP
20
20
40
40
40
80
80
80
ENDCHAR
STARTCHAR 0030
ENCODING 48
SWIDTH 514 0
DWIDTH 5 0
BBX 5 7 0 0
BITMAP
70
F8
C8
C8
C8
D8
70
ENDCHAR
STARTCHAR 0031
ENCODING 49
SWIDTH 514 0
DWIDTH 5 0
BBX 3 7 1 0
BITMAP
E0
E0
60
60
60
60
60
ENDCHAR
STARTCHAR 0032
ENCODING 50
SWIDTH 514 0
DWIDTH 5 0
BBX 5 7 0 0
BITMAP
70
78
D8
70
70
78
F8
ENDCHAR
STARTCHAR 0033
ENCODING 51
SWIDTH 514 0
DWIDTH 5 0
BBX 5 7 0 0
BITMAP
70
78
30
78
18
F8
F0
ENDCHAR
STARTCHAR 0034
ENCODING 52
SWIDTH 514 0
DWIDTH 5 0
BBX 5 7 0 0
BITMAP
38
28
78
58
F8
78
18
ENDCHAR
STARTCHAR 0035
ENCODING 53
SWIDTH 514 0
DWIDTH 5 0
BBX 4 7 1 0
BITMAP
F0
F0
E0
F0
30
F0
E0
ENDCHAR
STARTCHAR 0036
ENCODING 54
SWIDTH 514 0
DWIDTH 5 0
BBX 5 7 0 0
BITMAP
30
30
70
58
C8
F8
70
ENDCHAR
STARTCHAR 0037
ENCODING 55
SWIDTH 514 0
DWIDTH 5 0
BBX 5 7 0 0
BITMAP
F8
F8
18
78
30
30
20
ENDCHAR
STARTCHAR 0038
ENCODING 56
SWIDTH 514 0
DWIDTH 5 0
BBX 5 7 0 0
BITMAP
70
58
58
78
C8
D8
78
ENDCHAR
STARTCHAR 0039
ENCODING 57
SWIDTH 514 0
DWIDTH 5 0
BBX 5 7 0 0
BITMAP
70
F8
C8
F8
50
30
20
ENDCHAR
STARTCHAR 003A
ENCODING 58
SWIDTH 308 0
DWIDTH 3 0
BBX 1 5 1 0
BITMAP
80
80
00
80
80
ENDCHAR
STARTCHAR 003B
ENCODING 59
SWIDTH 308 0
DWIDTH 3 0
BBX 3 6 0 -1
BITMAP
40
60
00
00
40
C0
ENDCHAR
STARTCHAR 003C
ENCODING 60
SWIDTH 822 0
DWIDTH 8 0
BBX 6 6 1 0
BITMAP
04
1C
E0
E0
38
04
ENDCHAR
STARTCHAR 003D
ENCODING 61
SWIDTH 822 0
DWIDTH 8 0
BBX 6 4 1 1
BITMAP
FC
FC
00
FC
ENDCHAR
STARTCHAR 003E
ENCODING 62
SWIDTH 822 0
DWIDTH 8 0
BBX 6 6 1 0
BITMAP
80
E0
1C
1C
70
80
ENDCHAR
STARTCHAR 003F
ENCODING 63
SWIDTH 514 0
DWIDTH 5 0
BBX 5 7 0 0
BITMAP
70
F8
18
30
20
20
60
ENDCHAR
STARTCHAR 0040
ENCODING 64
SWIDTH 925 0
DWIDTH 9 0
BBX 9 9 0 -2
BITMAP
1F00
2180
4E80
5280
9680
D580
4A00
3300
0C00
ENDCHAR
STARTCHAR 0041
ENCODING 65
SWIDTH 617 0
DWIDTH 6 0
BBX 6 7 0 0
BITMAP
30
78
CC
FC
CC
CC
CC
ENDCHAR
STARTCHAR 0042
ENCODING 66
SWIDTH 514 0
DWIDTH 5 0
BBX 5 7 0 0
BITMAP
70
78
D8
F8
C8
F8
F8
ENDCHAR
STARTCHAR 0043
ENCODING 67
SWIDTH 411 0
DWIDTH 4 0
BBX 5 7 0 0
BITMAP
38
78
C0
C0
C0
78
38
ENDCHAR
STARTCHAR 0044
ENCODING 68
SWIDTH 617 0
DWIDTH 6 0
BBX 6 7 0 0
BITMAP
F0
F8
CC
CC
CC
F8
F0
ENDCHAR
STARTCHAR 0045
ENCODING 69
SWIDTH 514 0
DWIDTH 5 0
BBX 5 7 0 0
BITMAP
38
78
C0
F8
C0
78
38
ENDCHAR
STARTCHAR 0046
ENCODING 70
SWIDTH 411 0
DWIDTH 4 0
BBX 4 7 0 0
BITMAP
70
70
C0
F0
F0
C0
C0
ENDCHAR
STARTCHAR 0047
ENCODING 71
SWIDTH 720 0
DWIDTH 7 0
BBX 7 7 0 0
BITMAP
3C
7C
C0
CE
C6
7E
3C
ENDCHAR
STARTCHAR 0048
ENCODING 72
SWIDTH 617 0
DWIDTH 6 0
BBX 6 7 0 0
BITMAP
CC
CC
CC
FC
CC
CC
CC
ENDCHAR
STARTCHAR 0049
ENCODING 73
SWIDTH 205 0
DWIDTH 2 0
BBX 1 7 1 0
BITMAP
80
80
80
80
80
80
80
ENDCHAR
STARTCHAR 004A
ENCODING 74
SWIDTH 411 0
DWIDTH 4 0
BBX 4 7 0 0
BITMAP
30
30
30
30
30
F0
E0
ENDCHAR
STARTCHAR 004B
ENCODING 75
SWIDTH 514 0
DWIDTH 5 0
BBX 6 7 0 0
BITMAP
CC
D8
D8
F8
C8
C8
C8
ENDCHAR
STARTCHAR 004C
ENCODING 76
SWIDTH 411 0
DWIDTH 4 0
BBX 4 7 0 0
BITMAP
C0
C0
C0
C0
C0
70
70
ENDCHAR
STARTCHAR 004D
ENCODING 77
SWIDTH 822 0
DWIDTH 8 0
BBX 8 7 0 0
BITMAP
66
66
7E
5F
DB
DB
DB
ENDCHAR
STARTCHAR 004E
ENCODING 78
SWIDTH 617 0
DWIDTH 6 0
BBX 6 7 0 0
BITMAP
4C
EC
FC
FC
DC
CC
CC
ENDCHAR
STARTCHAR 004F
ENCODING 79
SWIDTH 720 0
DWIDTH 7 0
BBX 7 7 0 0
BITMAP
38
7E
C6
C2
C6
7E
3C
ENDCHAR
STARTCHAR 0050
ENCODING 80
SWIDTH 514 0
DWIDTH 5 0
BBX 5 7 0 0
BITMAP
70
78
C8
F8
F0
C0
C0
ENDCHAR
STARTCHAR 0051
ENCODING 81
SWIDTH 720 0
DWIDTH 7 0
BBX 7 8 0 -1
BITMAP
38
7E
C6
C2
D6
7E
3C
10
ENDCHAR
STARTCHAR 0052
ENCODING 82
SWIDTH 514 0
DWIDTH 5 0
BBX 5 7 0 0
BITMAP
70
78
D8
F0
D8
C8
C8
ENDCHAR
STARTCHAR 0053
ENCODING 83
SWIDTH 514 0
DWIDTH 5 0
BBX 5 7 0 0
BITMAP
78
F8
C0
70
18
F8
F0
ENDCHAR
STARTCHAR 0054
ENCODING 84
SWIDTH 411 0
DWIDTH 4 0
BBX 5 7 0 0
BITMAP
F8
F8
20
20
20
20
20
ENDCHAR
STARTCHAR 0055
ENCODING 85
SWIDTH 617 0
DWIDTH 6 0
BBX 6 7 0 0
BITMAP
CC
CC
CC
CC
CC
78
78
ENDCHAR
STARTCHAR 0056
ENCODING 86
SWIDTH 514 0
DWIDTH 5 0
BBX 5 7 0 0
BITMAP
C8
C8
D8
58
70
70
30
ENDCHAR
STARTCHAR 0057
ENCODING 87
SWIDTH 822 0
DWIDTH 8 0
BBX 8 7 0 0
BITMAP
C9
C9
C9
C9
C9
7F
77
ENDCHAR
STARTCHAR 0058
ENCODING 88
SWIDTH 617 0
DWIDTH 6 0
BBX 6 7 0 0
BITMAP
CC
FC
30
30
30
FC
CC
ENDCHAR
STARTCHAR 0059
ENCODING 89
SWIDTH 514 0
DWIDTH 5 0
BBX 5 7 0 0
BITMAP
D8
D8
D8
78
30
30
30
ENDCHAR
STARTCHAR 005A
ENCODING 90
SWIDTH 514 0
DWIDTH 5 0
BBX 5 7 0 0
BITMAP
F8
F8
30
30
60
F8
F8
ENDCHAR
STARTCHAR 005B
ENCODING 91
SWIDTH 308 0
DWIDTH 3 0
BBX 2 9 1 -2
BITMAP
C0
80
80
80
80
80
80
80
80
ENDCHAR
STARTCHAR 005C
ENCODING 92
SWIDTH 205 0
DWIDTH 2 0
BBX 3 8 0 -1
BITMAP
80
80
80
40
40
40
20
20
ENDCHAR
STARTCHAR 005D
ENCODING 93
SWIDTH 308 0
DWIDTH 3 0
BBX 2 9 0 -2
BITMAP
C0
40
40
40
40
40
40
40
40
ENDCHAR
STARTCHAR 005E
ENCODING 94
SWIDTH 925 0
DWIDTH 9 0
BBX 6 3 2 4
BITMAP
30
58
8C
ENDCHAR
STARTCHAR 005F
ENCODING 95
SWIDTH 411 0
DWIDTH 4 0
BBX 5 1 0 -2
BITMAP
F8
ENDCHAR
STARTCHAR 0060
ENCODING 96
SWIDTH 411 0
DWIDTH 4 0
BBX 1 2 2 5
BITMAP
80
80
ENDCHAR
STARTCHAR 0061
ENCODING 97
SWIDTH 514 0
DWIDTH 5 0
BBX 5 5 0 0
BITMAP
70
F8
C8
C8
68
ENDCHAR
STARTCHAR 0062
ENCODING 98
SWIDTH 514 0
DWIDTH 5 0
BBX 5 7 0 0
BITMAP
C0
C0
F0
F8
C8
58
70
ENDCHAR
STARTCHAR 0063
ENCODING 99
SWIDTH 308 0
DWIDTH 3 0
BBX 4 5 0 0
BITMAP
30
F0
C0
E0
70
ENDCHAR
STARTCHAR 0064
ENCODING 100
SWIDTH 514 0
DWIDTH 5 0
BBX 5 7 0 0
BITMAP
08
08
68
E8
C8
D8
70
ENDCHAR
STARTCHAR 0065
ENCODING 101
SWIDTH 514 0
DWIDTH 5 0
BBX 5 5 0 0
BITMAP
70
D8
F0
D8
70
ENDCHAR
STARTCHAR 0066
ENCODING 102
SWIDTH 308 0
DWIDTH 3 0
BBX 3 7 0 0
BITMAP
60
60
E0
E0
C0
C0
C0
ENDCHAR
STARTCHAR 0067
ENCODING 103
SWIDTH 514 0
DWIDTH 5 0
BBX 5 7 0 -2
BITMAP
70
F8
C8
C8
68
18
70
ENDCHAR
STARTCHAR 0068
ENCODING 104
SWIDTH 514 0
DWIDTH 5 0
BBX 5 7 0 0
BITMAP
C0
C0
F0
F8
D8
D8
D8
ENDCHAR
STARTCHAR 0069
ENCODING 105
SWIDTH 205 0
DWIDTH 2 0
BBX 2 7 0 0
BITMAP
C0
40
C0
C0
C0
C0
C0
ENDCHAR
STARTCHAR 006A
ENCODING 106
SWIDTH 205 0
DWIDTH 2 0
BBX 3 9 -1 -2
BITMAP
60
20
60
60
60
60
60
60
E0
ENDCHAR
STARTCHAR 006B
ENCODING 107
SWIDTH 514 0
DWIDTH 5 0
BBX 5 7 0 0
BITMAP
C0
C0
D8
D0
F0
D8
D8
ENDCHAR
STARTCHAR 006C
ENCODING 108
SWIDTH 205 0
DWIDTH 2 0
BBX 2 7 0 0
BITMAP
C0
C0
C0
C0
C0
C0
C0
ENDCHAR
STARTCHAR 006D
ENCODING 109
SWIDTH 720 0
DWIDTH 7 0
BBX 7 5 0 0
BITMAP
7E
7E
DA
DA
DA
ENDCHAR
STARTCHAR 006E
ENCODING 110
SWIDTH 514 0
DWIDTH 5 0
BBX 5 5 0 0
BITMAP
70
78
D8
D8
D8
ENDCHAR
STARTCHAR 006F
ENCODING 111
SWIDTH 514 0
DWIDTH 5 0
BBX 5 5 0 0
BITMAP
70
F8
C8
D8
70
ENDCHAR
STARTCHAR 0070
ENCODING 112
SWIDTH 514 0
DWIDTH 5 0
BBX 5 7 0 -2
BITMAP
70
78
C8
D8
F0
C0
C0
ENDCHAR
STARTCHAR 0071
ENCODING 113
SWIDTH 514 0
DWIDTH 5 0
BBX 5 7 0 -2
BITMAP
70
F8
C8
C8
68
08
08
ENDCHAR
STARTCHAR 0072
ENCODING 114
SWIDTH 308 0
DWIDTH 3 0
BBX 4 5 0 0
BITMAP
F0
F0
C0
C0
C0
ENDCHAR
STARTCHAR 0073
ENCODING 115
SWIDTH 411 0
DWIDTH 4 0
BBX 4 5 0 0
BITMAP
70
C0
60
30
F0
ENDCHAR
STARTCHAR 0074
ENCODING 116
SWIDTH 308 0
DWIDTH 3 0
BBX 3 6 0 0
BITMAP
C0
E0
E0
C0
C0
60
ENDCHAR
STARTCHAR 0075
ENCODING 117
SWIDTH 514 0
DWIDTH 5 0
BBX 5 5 0 0
BITMAP
D8
D8
D8
D8
70
ENDCHAR
STARTCHAR 0076
ENCODING 118
SWIDTH 411 0
DWIDTH 4 0
BBX 5 5 0 0
BITMAP
D8
D0
50
70
60
ENDCHAR
STARTCHAR 0077
ENCODING 119
SWIDTH 720 0
DWIDTH 7 0
BBX 7 5 0 0
BITMAP
DA
DA
DA
DA
7E
ENDCHAR
STARTCHAR 0078
ENCODING 120
SWIDTH 411 0
DWIDTH 4 0
BBX 4 5 0 0
BITMAP
D0
F0
60
F0
D0
ENDCHAR
STARTCHAR 0079
ENCODING 121
SWIDTH 514 0
DWIDTH 5 0
BBX 5 7 0 -2
BITMAP
D8
D8
D8
D8
70
20
20
ENDCHAR
STARTCHAR 007A
ENCODING 122
SWIDTH 411 0
DWIDTH 4 0
BBX 4 5 0 0
BITMAP
F0
F0
60
C0
F0
ENDCHAR
STARTCHAR 007B
ENCODING 123
SWIDTH 411 0
DWIDTH 4 0
BBX 3 9 1 -2
BITMAP
60
40
40
40
80
40
40
40
60
ENDCHAR
STARTCHAR 007C
ENCODING 124
SWIDTH 411 0
DWIDTH 4 0
BBX 1 9 2 -2
BITMAP
80
80
80
80
80
80
80
80
80
ENDCHAR
STARTCHAR 007D
ENCODING 125
SWIDTH 411 0
DWIDTH 4 0
BBX 3 9 1 -2
BITMAP
C0
40
40
40
20
40
40
40
C0
ENDCHAR
STARTCHAR 007E
ENCODING 126
SWIDTH 822 0
DWIDTH 8 0
BBX 6 2 1 2
BITMAP
60
9C
ENDCHAR
STARTCHAR 0080
ENCODING 128
SWIDTH 514 0
DWIDTH 5 0
BBX 4 7 1 0
BITMAP
30
70
C0
E0
E0
E0
70
ENDCHAR
STARTCHAR 00A0
ENCODING 160
SWIDTH 514 0
DWIDTH 5 0
BBX 0 0 0 0
BITMAP
ENDCHAR
STARTCHAR 00A1
ENCODING 161
SWIDTH 308 0
DWIDTH 3 0
BBX 1 7 1 0
BITMAP
80
80
80
80
80
80
80
ENDCHAR
STARTCHAR 00A2
ENCODING 162
SWIDTH 514 0
DWIDTH 5 0
BBX 3 7 1 0
BITMAP
20
20
E0
80
E0
60
20
ENDCHAR
STARTCHAR 00A3
ENCODING 163
SWIDTH 514 0
DWIDTH 5 0
BBX 5 7 0 0
BITMAP
30
70
60
E0
68
F8
F8
ENDCHAR
STARTCHAR 00A4
ENCODING 164
SWIDTH 514 0
DWIDTH 5 0
BBX 4 7 1 0
BITMAP
30
70
C0
E0
E0
E0
70
ENDCHAR
STARTCHAR 00A5
ENCODING 165
SWIDTH 514 0
DWIDTH 5 0
BBX 6 7 0 0
BITMAP
CC
48
FC
FC
30
30
30
ENDCHAR
STARTCHAR 00A6
ENCODING 166
SWIDTH 411 0
DWIDTH 4 0
BBX 1 9 2 -2
BITMAP
80
80
80
80
00
80
80
80
80
ENDCHAR
STARTCHAR 00A7
ENCODING 167
SWIDTH 514 0
DWIDTH 5 0
BBX 4 8 1 -1
BITMAP
E0
E0
C0
E0
F0
30
F0
E0
ENDCHAR
STARTCHAR 00A8
ENCODING 168
SWIDTH 411 0
DWIDTH 4 0
BBX 3 1 1 6
BITMAP
A0
ENDCHAR
STARTCHAR 00A9
ENCODING 169
SWIDTH 822 0
DWIDTH 8 0
BBX 8 7 0 0
BITMAP
3C
5A
A6
A1
A6
5A
3C
ENDCHAR
STARTCHAR 00AA
ENCODING 170
SWIDTH 411 0
DWIDTH 4 0
BBX 4 4 0 3
BITMAP
60
90
D0
50
ENDCHAR
STARTCHAR 00AB
ENCODING 171
SWIDTH 514 0
DWIDTH 5 0
BBX 3 3 1 1
BITMAP
E0
A0
A0
ENDCHAR
STARTCHAR 00AC
ENCODING 172
SWIDTH 822 0
DWIDTH 8 0
BBX 6 2 1 2
BITMAP
FC
04
ENDCHAR
STARTCHAR 00AD
ENCODING 173
SWIDTH 308 0
DWIDTH 3 0
BBX 3 1 0 2
BITMAP
E0
ENDCHAR
STARTCHAR 00AE
ENCODING 174
SWIDTH 822 0
DWIDTH 8 0
BBX 8 7 0 0
BITMAP
3C
52
9E
99
9A
42
3C
ENDCHAR
STARTCHAR 00AF
ENCODING 175
SWIDTH 411 0
DWIDTH 4 0
BBX 3 1 1 6
BITMAP
E0
ENDCHAR
STARTCHAR 00B0
ENCODING 176
SWIDTH 308 0
DWIDTH 3 0
BBX 3 3 0 4
BITMAP
60
A0
E0
ENDCHAR
STARTCHAR 00B1
ENCODING 177
SWIDTH 822 0
DWIDTH 8 0
BBX 6 6 1 0
BITMAP
30
30
FC
30
00
FC
ENDCHAR
STARTCHAR 00B2
ENCODING 178
SWIDTH 308 0
DWIDTH 3 0
BBX 3 4 0 3
BITMAP
60
A0
60
E0
ENDCHAR
STARTCHAR 00B3
ENCODING 179
SWIDTH 308 0
DWIDTH 3 0
BBX 3 4 0 3
BITMAP
E0
60
60
E0
ENDCHAR
STARTCHAR 00B4
ENCODING 180
SWIDTH 411 0
DWIDTH 4 0
BBX 1 1 2 5
BITMAP
80
ENDCHAR
STARTCHAR 00B5
ENCODING 181
SWIDTH 617 0
DWIDTH 6 0
BBX 6 7 0 -2
BITMAP
6C
4C
CC
D8
F8
C0
C0
ENDCHAR
STARTCHAR 00B6
ENCODING 182
SWIDTH 411 0
DWIDTH 4 0
BBX 5 7 0 0
BITMAP
78
F0
F0
30
30
30
30
ENDCHAR
STARTCHAR 00B7
ENCODING 183
SWIDTH 205 0
DWIDTH 2 0
BBX 2 1 0 3
BITMAP
C0
ENDCHAR
STARTCHAR 00B8
ENCODING 184
SWIDTH 411 0
DWIDTH 4 0
BBX 2 3 2 -2
BITMAP
80
80
C0
ENDCHAR
STARTCHAR 00B9
ENCODING 185
SWIDTH 308 0
DWIDTH 3 0
BBX 2 4 1 3
BITMAP
C0
40
40
40
ENDCHAR
STARTCHAR 00BA
ENCODING 186
SWIDTH 411 0
DWIDTH 4 0
BBX 4 4 0 3
BITMAP
60
90
F0
60
ENDCHAR
STARTCHAR 00BB
ENCODING 187
SWIDTH 514 0
DWIDTH 5 0
BBX 4 3 1 1
BITMAP
A0
50
A0
ENDCHAR
STARTCHAR 00BC
ENCODING 188
SWIDTH 822 0
DWIDTH 8 0
BBX 7 7 1 0
BITMAP
C4
C8
D0
D4
26
2E
42
ENDCHAR
STARTCHAR 00BD
ENCODING 189
SWIDTH 822 0
DWIDTH 8 0
BBX 7 7 1 0
BITMAP
C4
C8
D0
D6
2A
24
4E
ENDCHAR
STARTCHAR 00BE
ENCODING 190
SWIDTH 822 0
DWIDTH 8 0
BBX 8 7 0 0
BITMAP
E2
64
28
EA
13
17
21
ENDCHAR
STARTCHAR 00BF
ENCODING 191
SWIDTH 514 0
DWIDTH 5 0
BBX 5 7 0 0
BITMAP
20
20
20
60
C0
D8
70
ENDCHAR
STARTCHAR 00C0
ENCODING 192
SWIDTH 617 0
DWIDTH 6 0
BBX 6 9 0 0
BITMAP
20
10
30
78
CC
FC
CC
CC
CC
ENDCHAR
STARTCHAR 00C1
ENCODING 193
SWIDTH 617 0
DWIDTH 6 0
BBX 6 9 0 0
BITMAP
10
20
30
78
CC
FC
CC
CC
CC
ENDCHAR
STARTCHAR 00C2
ENCODING 194
SWIDTH 617 0
DWIDTH 6 0
BBX 6 9 0 0
BITMAP
30
00
30
78
CC
FC
CC
CC
CC
ENDCHAR
STARTCHAR 00C3
ENCODING 195
SWIDTH 617 0
DWIDTH 6 0
BBX 6 9 0 0
BITMAP
30
00
30
78
CC
FC
CC
CC
CC
ENDCHAR
STARTCHAR 00C4
ENCODING 196
SWIDTH 617 0
DWIDTH 6 0
BBX 6 9 0 0
BITMAP
30
00
30
78
CC
FC
CC
CC
CC
ENDCHAR
STARTCHAR 00C5
ENCODING 197
SWIDTH 617 0
DWIDTH 6 0
BBX 6 9 0 0
BITMAP
30
30
30
78
CC
FC
CC
CC
CC
ENDCHAR
STARTCHAR 00C6
ENCODING 198
SWIDTH 822 0
DWIDTH 8 0
BBX 8 7 0 0
BITMAP
33
7F
CC
FF
CC
CF
CF
ENDCHAR
STARTCHAR 00C7
ENCODING 199
SWIDTH 411 0
DWIDTH 4 0
BBX 5 9 0 -2
BITMAP
38
78
C0
C0
C0
78
38
10
30
ENDCHAR
STARTCHAR 00C8
ENCODING 200
SWIDTH 514 0
DWIDTH 5 0
BBX 5 9 0 0
BITMAP
20
10
38
78
C0
F8
C0
78
38
ENDCHAR
STARTCHAR 00C9
ENCODING 201
SWIDTH 514 0
DWIDTH 5 0
BBX 5 9 0 0
BITMAP
10
20
38
78
C0
F8
C0
78
38
ENDCHAR
STARTCHAR 00CA
ENCODING 202
SWIDTH 514 0
DWIDTH 5 0
BBX 5 9 0 0
BITMAP
30
28
38
78
C0
F8
C0
78
38
ENDCHAR
STARTCHAR 00CB
ENCODING 203
SWIDTH 514 0
DWIDTH 5 0
BBX 5 9 0 0
BITMAP
38
00
38
78
C0
F8
C0
78
38
ENDCHAR
STARTCHAR 00CC
ENCODING 204
SWIDTH 205 0
DWIDTH 2 0
BBX 2 9 0 0
BITMAP
C0
40
40
40
40
40
40
40
40
ENDCHAR
STARTCHAR 00CD
ENCODING 205
SWIDTH 205 0
DWIDTH 2 0
BBX 1 9 1 0
BITMAP
80
00
80
80
80
80
80
80
80
ENDCHAR
STARTCHAR 00CE
ENCODING 206
SWIDTH 205 0
DWIDTH 2 0
BBX 3 9 0 0
BITMAP
C0
A0
40
40
40
40
40
40
40
ENDCHAR
STARTCHAR 00CF
ENCODING 207
SWIDTH 205 0
DWIDTH 2 0
BBX 3 9 0 0
BITMAP
A0
00
40
40
40
40
40
40
40
ENDCHAR
STARTCHAR 00D0
ENCODING 208
SWIDTH 617 0
DWIDTH 6 0
BBX 6 7 0 0
BITMAP
70
78
4C
EC
4C
78
70
ENDCHAR
STARTCHAR 00D1
ENCODING 209
SWIDTH 617 0
DWIDTH 6 0
BBX 6 9 0 0
BITMAP
38
00
4C
EC
FC
FC
DC
CC
CC
ENDCHAR
STARTCHAR 00D2
ENCODING 210
SWIDTH 720 0
DWIDTH 7 0
BBX 7 9 0 0
BITMAP
10
00
38
7E
C6
C2
C6
7E
3C
ENDCHAR
STARTCHAR 00D3
ENCODING 211
SWIDTH 720 0
DWIDTH 7 0
BBX 7 9 0 0
BITMAP
08
10
38
7E
C6
C2
C6
7E
3C
ENDCHAR
STARTCHAR 00D4
ENCODING 212
SWIDTH 720 0
DWIDTH 7 0
BBX 7 9 0 0
BITMAP
18
28
38
7E
C6
C2
C6
7E
3C
ENDCHAR
STARTCHAR 00D5
ENCODING 213
SWIDTH 720 0
DWIDTH 7 0
BBX 7 9 0 0
BITMAP
18
00
38
7E
C6
C2
C6
7E
3C
ENDCHAR
STARTCHAR 00D6
ENCODING 214
SWIDTH 720 0
DWIDTH 7 0
BBX 7 9 0 0
BITMAP
38
00
38
7E
C6
C2
C6
7E
3C
ENDCHAR
STARTCHAR 00D7
ENCODING 215
SWIDTH 822 0
DWIDTH 8 0
BBX 5 5 2 1
BITMAP
90
60
60
D0
88
ENDCHAR
STARTCHAR 00D8
ENCODING 216
SWIDTH 720 0
DWIDTH 7 0
BBX 7 7 0 0
BITMAP
3A
7E
CE
D2
F6
7E
7C
ENDCHAR
STARTCHAR 00D9
ENCODING 217
SWIDTH 617 0
DWIDTH 6 0
BBX 6 9 0 0
BITMAP
20
10
CC
CC
CC
CC
CC
78
78
ENDCHAR
STARTCHAR 00DA
ENCODING 218
SWIDTH 617 0
DWIDTH 6 0
BBX 6 9 0 0
BITMAP
10
20
CC
CC
CC
CC
CC
78
78
ENDCHAR
STARTCHAR 00DB
ENCODING 219
SWIDTH 617 0
DWIDTH 6 0
BBX 6 9 0 0
BITMAP
30
00
CC
CC
CC
CC
CC
78
78
ENDCHAR
STARTCHAR 00DC
ENCODING 220
SWIDTH 617 0
DWIDTH 6 0
BBX 6 9 0 0
BITMAP
30
00
CC
CC
CC
CC
CC
78
78
ENDCHAR
STARTCHAR 00DD
ENCODING 221
SWIDTH 514 0
DWIDTH 5 0
BBX 5 9 0 0
BITMAP
10
20
D8
D8
D8
78
30
30
30
ENDCHAR
STARTCHAR 00DE
ENCODING 222
SWIDTH 514 0
DWIDTH 5 0
BBX 5 7 0 0
BITMAP
C0
F0
F8
C8
F8
F0
C0
ENDCHAR
STARTCHAR 00DF
ENCODING 223
SWIDTH 514 0
DWIDTH 5 0
BBX 5 7 0 0
BITMAP
70
58
D0
D8
48
48
78
ENDCHAR
STARTCHAR 00E0
ENCODING 224
SWIDTH 514 0
DWIDTH 5 0
BBX 5 7 0 0
BITMAP
20
00
70
F8
C8
C8
68
ENDCHAR
STARTCHAR 00E1
ENCODING 225
SWIDTH 514 0
DWIDTH 5 0
BBX 5 7 0 0
BITMAP
10
20
70
F8
C8
C8
68
ENDCHAR
STARTCHAR 00E2
ENCODING 226
SWIDTH 514 0
DWIDTH 5 0
BBX 5 7 0 0
BITMAP
30
50
70
F8
C8
C8
68
ENDCHAR
STARTCHAR 00E3
ENCODING 227
SWIDTH 514 0
DWIDTH 5 0
BBX 5 7 0 0
BITMAP
30
00
70
F8
C8
C8
68
ENDCHAR
STARTCHAR 00E4
ENCODING 228
SWIDTH 514 0
DWIDTH 5 0
BBX 5 7 0 0
BITMAP
50
00
70
F8
C8
C8
68
ENDCHAR
STARTCHAR 00E5
ENCODING 229
SWIDTH 514 0
DWIDTH 5 0
BBX 5 8 0 0
BITMAP
30
50
30
70
F8
C8
C8
68
ENDCHAR
STARTCHAR 00E6
ENCODING 230
SWIDTH 822 0
DWIDTH 8 0
BBX 8 5 0 0
BITMAP
FE
1B
7E
DB
EE
ENDCHAR
STARTCHAR 00E7
ENCODING 231
SWIDTH 308 0
DWIDTH 3 0
BBX 4 7 0 -2
BITMAP
30
F0
C0
E0
70
20
30
ENDCHAR
STARTCHAR 00E8
ENCODING 232
SWIDTH 514 0
DWIDTH 5 0
BBX 5 7 0 0
BITMAP
20
00
70
D8
F0
D8
70
ENDCHAR
STARTCHAR 00E9
ENCODING 233
SWIDTH 514 0
DWIDTH 5 0
BBX 5 7 0 0
BITMAP
10
20
70
D8
F0
D8
70
ENDCHAR
STARTCHAR 00EA
ENCODING 234
SWIDTH 514 0
DWIDTH 5 0
BBX 5 7 0 0
BITMAP
30
50
70
D8
F0
D8
70
ENDCHAR
STARTCHAR 00EB
ENCODING 235
SWIDTH 514 0
DWIDTH 5 0
BBX 5 7 0 0
BITMAP
50
00
70
D8
F0
D8
70
ENDCHAR
STARTCHAR 00EC
ENCODING 236
SWIDTH 205 0
DWIDTH 2 0
BBX 2 7 0 0
BITMAP
80
40
C0
C0
C0
C0
C0
ENDCHAR
STARTCHAR 00ED
ENCODING 237
SWIDTH 205 0
DWIDTH 2 0
BBX 2 7 0 0
BITMAP
40
00
C0
C0
C0
C0
C0
ENDCHAR
STARTCHAR 00EE
ENCODING 238
SWIDTH 205 0
DWIDTH 2 0
BBX 3 7 0 0
BITMAP
C0
A0
C0
C0
C0
C0
C0
ENDCHAR
STARTCHAR 00EF
ENCODING 239
SWIDTH 205 0
DWIDTH 2 0
BBX 3 7 0 0
BITMAP
E0
00
C0
C0
C0
C0
C0
ENDCHAR
STARTCHAR 00F0
ENCODING 240
SWIDTH 514 0
DWIDTH 5 0
BBX 5 7 0 0
BITMAP
60
70
10
78
D8
D8
70
ENDCHAR
STARTCHAR 00F1
ENCODING 241
SWIDTH 514 0
DWIDTH 5 0
BBX 5 7 0 0
BITMAP
30
00
70
78
D8
D8
D8
ENDCHAR
STARTCHAR 00F2
ENCODING 242
SWIDTH 514 0
DWIDTH 5 0
BBX 5 7 0 0
BITMAP
20
00
70
F8
C8
D8
70
ENDCHAR
STARTCHAR 00F3
ENCODING 243
SWIDTH 514 0
DWIDTH 5 0
BBX 5 7 0 0
BITMAP
10
20
70
F8
C8
D8
70
ENDCHAR
STARTCHAR 00F4
ENCODING 244
SWIDTH 514 0
DWIDTH 5 0
BBX 5 7 0 0
BITMAP
30
50
70
F8
C8
D8
70
ENDCHAR
STARTCHAR 00F5
ENCODING 245
SWIDTH 514 0
DWIDTH 5 0
BBX 5 7 0 0
BITMAP
30
00
70
F8
C8
D8
70
ENDCHAR
STARTCHAR 00F6
ENCODING 246
SWIDTH 514 0
DWIDTH 5 0
BBX 5 7 0 0
BITMAP
50
00
70
F8
C8
D8
70
ENDCHAR
STARTCHAR 00F7
ENCODING 247
SWIDTH 822 0
DWIDTH 8 0
BBX 6 5 1 1
BITMAP
30
00
FC
30
30
ENDCHAR
STARTCHAR 00F8
ENCODING 248
SWIDTH 514 0
DWIDTH 5 0
BBX 5 5 0 0
BITMAP
78
F8
E8
D8
70
ENDCHAR
STARTCHAR 00F9
ENCODING 249
SWIDTH 514 0
DWIDTH 5 0
BBX 5 7 0 0
BITMAP
20
00
D8
D8
D8
D8
70
ENDCHAR
STARTCHAR 00FA
ENCODING 250
SWIDTH 514 0
DWIDTH 5 0
BBX 5 7 0 0
BITMAP
20
20
D8
D8
D8
D8
70
ENDCHAR
STARTCHAR 00FB
ENCODING 251
SWIDTH 514 0
DWIDTH 5 0
BBX 5 7 0 0
BITMAP
20
50
D8
D8
D8
D8
70
ENDCHAR
STARTCHAR 00FC
ENCODING 252
SWIDTH 514 0
DWIDTH 5 0
BBX 5 7 0 0
BITMAP
50
00
D8
D8
D8
D8
70
ENDCHAR
STARTCHAR 00FD
ENCODING 253
SWIDTH 514 0
DWIDTH 5 0
BBX 5 9 0 -2
BITMAP
20
20
D8
D8
D8
D8
70
20
20
ENDCHAR
STARTCHAR 00FE
ENCODING 254
SWIDTH 514 0
DWIDTH 5 0
BBX 5 9 0 -2
BITMAP
C0
C0
F0
F8
C8
D8
F0
C0
C0
ENDCHAR
STARTCHAR 00FF
ENCODING 255
SWIDTH 514 0
DWIDTH 5 0
BBX 5 9 0 -2
BITMAP
50
00
D8
D8
D8
D8
70
20
20
ENDCHAR
STARTCHAR 0102
ENCODING 258
SWIDTH 617 0
DWIDTH 6 0
BBX 6 8 0 1
BITMAP
30
30
78
CC
FC
CC
CC
CC
ENDCHAR
STARTCHAR 0103
ENCODING 259
SWIDTH 514 0
DWIDTH 5 0
BBX 5 7 0 0
BITMAP
50
20
70
F8
C8
C8
68
ENDCHAR
STARTCHAR 0106
ENCODING 262
SWIDTH 411 0
DWIDTH 4 0
BBX 5 9 0 0
BITMAP
10
20
38
78
C0
C0
C0
78
38
ENDCHAR
STARTCHAR 0107
ENCODING 263
SWIDTH 308 0
DWIDTH 3 0
BBX 4 7 0 0
BITMAP
20
00
30
F0
C0
E0
70
ENDCHAR
STARTCHAR 010C
ENCODING 268
SWIDTH 411 0
DWIDTH 4 0
BBX 5 9 0 0
BITMAP
30
10
38
78
C0
C0
C0
78
38
ENDCHAR
STARTCHAR 010D
ENCODING 269
SWIDTH 308 0
DWIDTH 3 0
BBX 4 7 0 0
BITMAP
50
20
30
F0
C0
E0
70
ENDCHAR
STARTCHAR 0110
ENCODING 272
SWIDTH 617 0
DWIDTH 6 0
BBX 6 7 0 0
BITMAP
70
78
4C
EC
4C
78
70
ENDCHAR
STARTCHAR 0111
ENCODING 273
SWIDTH 514 0
DWIDTH 5 0
BBX 6 7 0 0
BITMAP
08
3C
68
E8
C8
D8
70
ENDCHAR
STARTCHAR 011E
ENCODING 286
SWIDTH 720 0
DWIDTH 7 0
BBX 7 9 0 0
BITMAP
28
10
3C
7C
C0
CE
C6
7E
3C
ENDCHAR
STARTCHAR 011F
ENCODING 287
SWIDTH 514 0
DWIDTH 5 0
BBX 5 9 0 -2
BITMAP
50
20
70
F8
C8
C8
68
18
70
ENDCHAR
STARTCHAR 0128
ENCODING 296
SWIDTH 205 0
DWIDTH 2 0
BBX 3 9 0 0
BITMAP
E0
00
40
40
40
40
40
40
40
ENDCHAR
STARTCHAR 0129
ENCODING 297
SWIDTH 205 0
DWIDTH 2 0
BBX 3 7 0 0
BITMAP
E0
00
C0
C0
C0
C0
C0
ENDCHAR
STARTCHAR 0130
ENCODING 304
SWIDTH 205 0
DWIDTH 2 0
BBX 1 9 1 0
BITMAP
80
00
80
80
80
80
80
80
80
ENDCHAR
STARTCHAR 0131
ENCODING 305
SWIDTH 205 0
DWIDTH 2 0
BBX 2 5 0 0
BITMAP
C0
C0
C0
C0
C0
ENDCHAR
STARTCHAR 0141
ENCODING 321
SWIDTH 411 0
DWIDTH 4 0
BBX 4 7 0 0
BITMAP
40
40
60
C0
C0
70
70
ENDCHAR
STARTCHAR 0142
ENCODING 322
SWIDTH 205 0
DWIDTH 2 0
BBX 3 7 0 0
BITMAP
40
40
60
C0
40
40
40
ENDCHAR
STARTCHAR 0152
ENCODING 338
SWIDTH 1028 0
DWIDTH 10 0
BBX 10 7 0 0
BITMAP
39C0
7FC0
C600
C3C0
C600
7FC0
3DC0
ENDCHAR
STARTCHAR 0153
ENCODING 339
SWIDTH 822 0
DWIDTH 8 0
BBX 8 5 0 0
BITMAP
76
F9
CE
DD
7F
ENDCHAR
STARTCHAR 015E
ENCODING 350
SWIDTH 514 0
DWIDTH 5 0
BBX 5 9 0 -2
BITMAP
78
F8
C0
70
18
F8
F0
20
30
ENDCHAR
STARTCHAR 015F
ENCODING 351
SWIDTH 411 0
DWIDTH 4 0
BBX 4 7 0 -2
BITMAP
70
C0
60
30
F0
20
30
ENDCHAR
STARTCHAR 0160
ENCODING 352
SWIDTH 514 0
DWIDTH 5 0
BBX 5 9 0 0
BITMAP
50
20
78
F8
C0
70
18
F8
F0
ENDCHAR
STARTCHAR 0161
ENCODING 353
SWIDTH 411 0
DWIDTH 4 0
BBX 4 7 0 0
BITMAP
60
60
70
C0
60
30
F0
ENDCHAR
STARTCHAR 0168
ENCODING 360
SWIDTH 617 0
DWIDTH 6 0
BBX 6 9 0 0
BITMAP
30
00
CC
CC
CC
CC
CC
78
78
ENDCHAR
STARTCHAR 0169
ENCODING 361
SWIDTH 514 0
DWIDTH 5 0
BBX 5 7 0 0
BITMAP
30
00
D8
D8
D8
D8
70
ENDCHAR
STARTCHAR 0178
ENCODING 376
SWIDTH 514 0
DWIDTH 5 0
BBX 5 9 0 0
BITMAP
70
00
D8
D8
D8
78
30
30
30
ENDCHAR
STARTCHAR 017D
ENCODING 381
SWIDTH 514 0
DWIDTH 5 0
BBX 5 9 0 0
BITMAP
50
20
F8
F8
30
30
60
F8
F8
ENDCHAR
STARTCHAR 017E
ENCODING 382
SWIDTH 411 0
DWIDTH 4 0
BBX 4 7 0 0
BITMAP
60
20
F0
F0
60
C0
F0
ENDCHAR
STARTCHAR 0192
ENCODING 402
SWIDTH 514 0
DWIDTH 5 0
BBX 5 9 0 -2
BITMAP
18
38
30
78
20
20
20
60
E0
ENDCHAR
STARTCHAR 01A0
ENCODING 416
SWIDTH 720 0
DWIDTH 7 0
BBX 7 7 0 0
BITMAP
3A
7E
C6
C2
C6
7E
3C
ENDCHAR
STARTCHAR 01A1
ENCODING 417
SWIDTH 514 0
DWIDTH 5 0
BBX 6 6 0 0
BITMAP
0C
78
F8
C8
D8
70
ENDCHAR
STARTCHAR 01AF
ENCODING 431
SWIDTH 617 0
DWIDTH 6 0
BBX 7 7 0 0
BITMAP
CE
CC
CC
CC
CC
78
78
ENDCHAR
STARTCHAR 01B0
ENCODING 432
SWIDTH 514 0
DWIDTH 5 0
BBX 6 6 0 0
BITMAP
04
DC
D8
D8
D8
70
ENDCHAR
STARTCHAR 02C6
ENCODING 710
SWIDTH 411 0
DWIDTH 4 0
BBX 3 2 1 5
BITMAP
40
A0
ENDCHAR
STARTCHAR 02C7
ENCODING 711
SWIDTH 411 0
DWIDTH 4 0
BBX 3 2 1 5
BITMAP
A0
40
ENDCHAR
STARTCHAR 02C9
ENCODING 713
SWIDTH 411 0
DWIDTH 4 0
BBX 3 1 1 6
BITMAP
E0
ENDCHAR
STARTCHAR 02D8
ENCODING 728
SWIDTH 411 0
DWIDTH 4 0
BBX 3 2 1 5
BITMAP
A0
40
ENDCHAR
STARTCHAR 02D9
ENCODING 729
SWIDTH 411 0
DWIDTH 4 0
BBX 1 1 2 6
BITMAP
80
ENDCHAR
STARTCHAR 02DA
ENCODING 730
SWIDTH 411 0
DWIDTH 4 0
BBX 3 3 1 5
BITMAP
40
A0
40
ENDCHAR
STARTCHAR 02DB
ENCODING 731
SWIDTH 411 0
DWIDTH 4 0
BBX 1 2 2 -2
BITMAP
80
80
ENDCHAR
STARTCHAR 02DC
ENCODING 732
SWIDTH 411 0
DWIDTH 4 0
BBX 3 1 1 6
BITMAP
E0
ENDCHAR
STARTCHAR 02DD
ENCODING 733
SWIDTH 411 0
DWIDTH 4 0
BBX 3 2 1 5
BITMAP
60
80
ENDCHAR
STARTCHAR 0394
ENCODING 916
SWIDTH 617 0
DWIDTH 6 0
BBX 7 7 0 0
BITMAP
38
38
28
6C
6C
44
FE
ENDCHAR
STARTCHAR 03A9
ENCODING 937
SWIDTH 720 0
DWIDTH 7 0
BBX 8 7 0 0
BITMAP
3C
66
46
46
66
24
E7
ENDCHAR
STARTCHAR 03BC
ENCODING 956
SWIDTH 617 0
DWIDTH 6 0
BBX 6 7 0 -2
BITMAP
6C
4C
CC
D8
F8
C0
C0
ENDCHAR
STARTCHAR 03C0
ENCODING 960
SWIDTH 720 0
DWIDTH 7 0
BBX 7 5 0 0
BITMAP
FE
AC
2C
6C
6C
ENDCHAR
STARTCHAR 1EA0
ENCODING 7840
SWIDTH 617 0
DWIDTH 6 0
BBX 6 9 0 -3
BITMAP
30
78
CC
FC
CC
CC
CC
00
30
ENDCHAR
STARTCHAR 1EA1
ENCODING 7841
SWIDTH 514 0
DWIDTH 5 0
BBX 5 8 0 -3
BITMAP
70
F8
C8
C8
68
00
30
20
ENDCHAR
STARTCHAR 1EA2
ENCODING 7842
SWIDTH 617 0
DWIDTH 6 0
BBX 6 9 0 0
BITMAP
30
00
30
78
CC
FC
CC
CC
CC
ENDCHAR
STARTCHAR 1EA3
ENCODING 7843
SWIDTH 514 0
DWIDTH 5 0
BBX 5 7 0 0
BITMAP
30
20
70
F8
C8
C8
68
ENDCHAR
STARTCHAR 1EA4
ENCODING 7844
SWIDTH 617 0
DWIDTH 6 0
BBX 6 11 0 0
BITMAP
10
20
30
00
30
78
CC
FC
CC
CC
CC
ENDCHAR
STARTCHAR 1EA5
ENCODING 7845
SWIDTH 514 0
DWIDTH 5 0
BBX 5 9 0 0
BITMAP
20
00
30
50
70
F8
C8
C8
68
ENDCHAR
STARTCHAR 1EA6
ENCODING 7846
SWIDTH 617 0
DWIDTH 6 0
BBX 6 11 0 0
BITMAP
30
10
30
00
30
78
CC
FC
CC
CC
CC
ENDCHAR
STARTCHAR 1EA7
ENCODING 7847
SWIDTH 514 0
DWIDTH 5 0
BBX 5 9 0 0
BITMAP
20
10
30
50
70
F8
C8
C8
68
ENDCHAR
STARTCHAR 1EA8
ENCODING 7848
SWIDTH 617 0
DWIDTH 6 0
BBX 6 11 0 0
BITMAP
08
08
30
00
30
78
CC
FC
CC
CC
CC
ENDCHAR
STARTCHAR 1EA9
ENCODING 7849
SWIDTH 514 0
DWIDTH 5 0
BBX 5 9 0 0
BITMAP
18
08
30
50
70
F8
C8
C8
68
ENDCHAR
STARTCHAR 1EAA
ENCODING 7850
SWIDTH 617 0
DWIDTH 6 0
BBX 6 11 0 0
BITMAP
08
30
30
00
30
78
CC
FC
CC
CC
CC
ENDCHAR
STARTCHAR 1EAB
ENCODING 7851
SWIDTH 514 0
DWIDTH 5 0
BBX 5 9 0 0
BITMAP
20
10
30
50
70
F8
C8
C8
68
ENDCHAR
STARTCHAR 1EAC
ENCODING 7852
SWIDTH 617 0
DWIDTH 6 0
BBX 6 11 0 -3
BITMAP
30
00
30
78
CC
FC
CC
CC
CC
00
30
ENDCHAR
STARTCHAR 1EAD
ENCODING 7853
SWIDTH 514 0
DWIDTH 5 0
BBX 5 10 0 -3
BITMAP
30
50
70
F8
C8
C8
68
00
30
20
ENDCHAR
STARTCHAR 1EAE
ENCODING 7854
SWIDTH 617 0
DWIDTH 6 0
BBX 6 11 0 0
BITMAP
10
20
00
30
30
78
CC
FC
CC
CC
CC
ENDCHAR
STARTCHAR 1EAF
ENCODING 7855
SWIDTH 514 0
DWIDTH 5 0
BBX 5 9 0 0
BITMAP
10
20
50
20
70
F8
C8
C8
68
ENDCHAR
STARTCHAR 1EB0
ENCODING 7856
SWIDTH 617 0
DWIDTH 6 0
BBX 6 11 0 0
BITMAP
20
10
00
30
30
78
CC
FC
CC
CC
CC
ENDCHAR
STARTCHAR 1EB1
ENCODING 7857
SWIDTH 514 0
DWIDTH 5 0
BBX 5 9 0 0
BITMAP
20
00
50
20
70
F8
C8
C8
68
ENDCHAR
STARTCHAR 1EB2
ENCODING 7858
SWIDTH 617 0
DWIDTH 6 0
BBX 6 11 0 0
BITMAP
30
10
00
30
30
78
CC
FC
CC
CC
CC
ENDCHAR
STARTCHAR 1EB3
ENCODING 7859
SWIDTH 514 0
DWIDTH 5 0
BBX 5 9 0 0
BITMAP
30
20
50
20
70
F8
C8
C8
68
ENDCHAR
STARTCHAR 1EB4
ENCODING 7860
SWIDTH 617 0
DWIDTH 6 0
BBX 6 11 0 0
BITMAP
08
30
00
30
30
78
CC
FC
CC
CC
CC
ENDCHAR
STARTCHAR 1EB5
ENCODING 7861
SWIDTH 514 0
DWIDTH 5 0
BBX 5 9 0 0
BITMAP
20
50
50
20
70
F8
C8
C8
68
ENDCHAR
STARTCHAR 1EB6
ENCODING 7862
SWIDTH 617 0
DWIDTH 6 0
BBX 6 10 0 -2
BITMAP
30
30
78
CC
FC
CC
CC
CC
00
30
ENDCHAR
STARTCHAR 1EB7
ENCODING 7863
SWIDTH 514 0
DWIDTH 5 0
BBX 5 10 0 -3
BITMAP
50
20
70
F8
C8
C8
68
00
30
20
ENDCHAR
STARTCHAR 1EB8
ENCODING 7864
SWIDTH 514 0
DWIDTH 5 0
BBX 5 10 0 -3
BITMAP
38
78
C0
F8
C0
78
38
00
30
10
ENDCHAR
STARTCHAR 1EB9
ENCODING 7865
SWIDTH 514 0
DWIDTH 5 0
BBX 5 8 0 -3
BITMAP
70
D8
F0
D8
70
00
30
20
ENDCHAR
STARTCHAR 1EBA
ENCODING 7866
SWIDTH 514 0
DWIDTH 5 0
BBX 5 9 0 0
BITMAP
38
10
38
78
C0
F8
C0
78
38
ENDCHAR
STARTCHAR 1EBB
ENCODING 7867
SWIDTH 514 0
DWIDTH 5 0
BBX 5 7 0 0
BITMAP
30
20
70
D8
F0
D8
70
ENDCHAR
STARTCHAR 1EBC
ENCODING 7868
SWIDTH 514 0
DWIDTH 5 0
BBX 5 9 0 0
BITMAP
38
00
38
78
C0
F8
C0
78
38
ENDCHAR
STARTCHAR 1EBD
ENCODING 7869
SWIDTH 514 0
DWIDTH 5 0
BBX 5 7 0 0
BITMAP
30
00
70
D8
F0
D8
70
ENDCHAR
STARTCHAR 1EBE
ENCODING 7870
SWIDTH 514 0
DWIDTH 5 0
BBX 5 11 0 0
BITMAP
10
20
30
28
38
78
C0
F8
C0
78
38
ENDCHAR
STARTCHAR 1EBF
ENCODING 7871
SWIDTH 514 0
DWIDTH 5 0
BBX 5 9 0 0
BITMAP
20
00
30
50
70
D8
F0
D8
70
ENDCHAR
STARTCHAR 1EC0
ENCODING 7872
SWIDTH 514 0
DWIDTH 5 0
BBX 5 11 0 0
BITMAP
10
10
30
28
38
78
C0
F8
C0
78
38
ENDCHAR
STARTCHAR 1EC1
ENCODING 7873
SWIDTH 514 0
DWIDTH 5 0
BBX 5 9 0 0
BITMAP
20
10
30
50
70
D8
F0
D8
70
ENDCHAR
STARTCHAR 1EC2
ENCODING 7874
SWIDTH 514 0
DWIDTH 5 0
BBX 5 11 0 0
BITMAP
08
08
30
28
38
78
C0
F8
C0
78
38
ENDCHAR
STARTCHAR 1EC3
ENCODING 7875
SWIDTH 514 0
DWIDTH 5 0
BBX 5 9 0 0
BITMAP
18
08
30
50
70
D8
F0
D8
70
ENDCHAR
STARTCHAR 1EC4
ENCODING 7876
SWIDTH 514 0
DWIDTH 5 0
BBX 5 11 0 0
BITMAP
08
30
30
28
38
78
C0
F8
C0
78
38
ENDCHAR
STARTCHAR 1EC5
ENCODING 7877
SWIDTH 514 0
DWIDTH 5 0
BBX 5 9 0 0
BITMAP
20
50
30
50
70
D8
F0
D8
70
ENDCHAR
STARTCHAR 1EC6
ENCODING 7878
SWIDTH 514 0
DWIDTH 5 0
BBX 5 12 0 -3
BITMAP
30
28
38
78
C0
F8
C0
78
38
00
30
10
ENDCHAR
STARTCHAR 1EC7
ENCODING 7879
SWIDTH 514 0
DWIDTH 5 0
BBX 5 10 0 -3
BITMAP
30
50
70
D8
F0
D8
70
00
30
20
ENDCHAR
STARTCHAR 1EC8
ENCODING 7880
SWIDTH 205 0
DWIDTH 2 0
BBX 2 9 0 0
BITMAP
C0
40
40
40
40
40
40
40
40
ENDCHAR
STARTCHAR 1EC9
ENCODING 7881
SWIDTH 205 0
DWIDTH 2 0
BBX 2 7 0 0
BITMAP
40
00
C0
C0
C0
C0
C0
ENDCHAR
STARTCHAR 1ECA
ENCODING 7882
SWIDTH 205 0
DWIDTH 2 0
BBX 2 10 0 -3
BITMAP
40
40
40
40
40
40
40
00
C0
40
ENDCHAR
STARTCHAR 1ECB
ENCODING 7883
SWIDTH 205 0
DWIDTH 2 0
BBX 2 10 0 -3
BITMAP
C0
40
C0
C0
C0
C0
C0
00
C0
40
ENDCHAR
STARTCHAR 1ECC
ENCODING 7884
SWIDTH 720 0
DWIDTH 7 0
BBX 7 10 0 -3
BITMAP
38
7E
C6
C2
C6
7E
3C
00
18
10
ENDCHAR
STARTCHAR 1ECD
ENCODING 7885
SWIDTH 514 0
DWIDTH 5 0
BBX 5 8 0 -3
BITMAP
70
F8
C8
D8
70
00
30
20
ENDCHAR
STARTCHAR 1ECE
ENCODING 7886
SWIDTH 720 0
DWIDTH 7 0
BBX 7 9 0 0
BITMAP
38
00
38
7E
C6
C2
C6
7E
3C
ENDCHAR
STARTCHAR 1ECF
ENCODING 7887
SWIDTH 514 0
DWIDTH 5 0
BBX 5 7 0 0
BITMAP
30
20
70
F8
C8
D8
70
ENDCHAR
STARTCHAR 1ED0
ENCODING 7888
SWIDTH 720 0
DWIDTH 7 0
BBX 7 11 0 0
BITMAP
10
10
18
28
38
7E
C6
C2
C6
7E
3C
ENDCHAR
STARTCHAR 1ED1
ENCODING 7889
SWIDTH 514 0
DWIDTH 5 0
BBX 5 9 0 0
BITMAP
20
00
30
50
70
F8
C8
D8
70
ENDCHAR
STARTCHAR 1ED2
ENCODING 7890
SWIDTH 720 0
DWIDTH 7 0
BBX 7 11 0 0
BITMAP
10
08
18
28
38
7E
C6
C2
C6
7E
3C
ENDCHAR
STARTCHAR 1ED3
ENCODING 7891
SWIDTH 514 0
DWIDTH 5 0
BBX 5 9 0 0
BITMAP
20
10
30
50
70
F8
C8
D8
70
ENDCHAR
STARTCHAR 1ED4
ENCODING 7892
SWIDTH 720 0
DWIDTH 7 0
BBX 7 11 0 0
BITMAP
0C
04
18
28
38
7E
C6
C2
C6
7E
3C
ENDCHAR
STARTCHAR 1ED5
ENCODING 7893
SWIDTH 514 0
DWIDTH 5 0
BBX 5 9 0 0
BITMAP
18
08
30
50
70
F8
C8
D8
70
ENDCHAR
STARTCHAR 1ED6
ENCODING 7894
SWIDTH 720 0
DWIDTH 7 0
BBX 7 11 0 0
BITMAP
04
18
18
28
38
7E
C6
C2
C6
7E
3C
ENDCHAR
STARTCHAR 1ED7
ENCODING 7895
SWIDTH 514 0
DWIDTH 5 0
BBX 5 9 0 0
BITMAP
20
50
30
50
70
F8
C8
D8
70
ENDCHAR
STARTCHAR 1ED8
ENCODING 7896
SWIDTH 720 0
DWIDTH 7 0
BBX 7 12 0 -3
BITMAP
18
28
38
7E
C6
C2
C6
7E
3C
00
18
10
ENDCHAR
STARTCHAR 1ED9
ENCODING 7897
SWIDTH 514 0
DWIDTH 5 0
BBX 5 10 0 -3
BITMAP
30
50
70
F8
C8
D8
70
00
30
20
ENDCHAR
STARTCHAR 1EDA
ENCODING 7898
SWIDTH 720 0
DWIDTH 7 0
BBX 7 9 0 0
BITMAP
08
10
3A
7E
C6
C2
C6
7E
3C
ENDCHAR
STARTCHAR 1EDB
ENCODING 7899
SWIDTH 514 0
DWIDTH 5 0
BBX 6 7 0 0
BITMAP
10
2C
78
F8
C8
D8
70
ENDCHAR
STARTCHAR 1EDC
ENCODING 7900
SWIDTH 720 0
DWIDTH 7 0
BBX 7 9 0 0
BITMAP
10
00
3A
7E
C6
C2
C6
7E
3C
ENDCHAR
STARTCHAR 1EDD
ENCODING 7901
SWIDTH 514 0
DWIDTH 5 0
BBX 6 7 0 0
BITMAP
20
0C
78
F8
C8
D8
70
ENDCHAR
STARTCHAR 1EDE
ENCODING 7902
SWIDTH 720 0
DWIDTH 7 0
BBX 7 9 0 0
BITMAP
38
00
3A
7E
C6
C2
C6
7E
3C
ENDCHAR
STARTCHAR 1EDF
ENCODING 7903
SWIDTH 514 0
DWIDTH 5 0
BBX 6 7 0 0
BITMAP
30
2C
78
F8
C8
D8
70
ENDCHAR
STARTCHAR 1EE0
ENCODING 7904
SWIDTH 720 0
DWIDTH 7 0
BBX 7 9 0 0
BITMAP
18
00
3A
7E
C6
C2
C6
7E
3C
ENDCHAR
STARTCHAR 1EE1
ENCODING 7905
SWIDTH 514 0
DWIDTH 5 0
BBX 6 7 0 0
BITMAP
30
0C
78
F8
C8
D8
70
ENDCHAR
STARTCHAR 1EE2
ENCODING 7906
SWIDTH 720 0
DWIDTH 7 0
BBX 7 10 0 -3
BITMAP
3A
7E
C6
C2
C6
7E
3C
00
18
10
ENDCHAR
STARTCHAR 1EE3
ENCODING 7907
SWIDTH 514 0
DWIDTH 5 0
BBX 6 9 0 -3
BITMAP
0C
78
F8
C8
D8
70
00
30
20
ENDCHAR
STARTCHAR 1EE4
ENCODING 7908
SWIDTH 617 0
DWIDTH 6 0
BBX 6 9 0 -3
BITMAP
CC
CC
CC
CC
CC
78
78
00
30
ENDCHAR
STARTCHAR 1EE5
ENCODING 7909
SWIDTH 514 0
DWIDTH 5 0
BBX 5 8 0 -3
BITMAP
D8
D8
D8
D8
70
00
30
20
ENDCHAR
STARTCHAR 1EE6
ENCODING 7910
SWIDTH 617 0
DWIDTH 6 0
BBX 6 9 0 0
BITMAP
30
00
CC
CC
CC
CC
CC
78
78
ENDCHAR
STARTCHAR 1EE7
ENCODING 7911
SWIDTH 514 0
DWIDTH 5 0
BBX 5 7 0 0
BITMAP
30
20
D8
D8
D8
D8
70
ENDCHAR
STARTCHAR 1EE8
ENCODING 7912
SWIDTH 617 0
DWIDTH 6 0
BBX 7 9 0 0
BITMAP
10
20
CE
CC
CC
CC
CC
78
78
ENDCHAR
STARTCHAR 1EE9
ENCODING 7913
SWIDTH 514 0
DWIDTH 5 0
BBX 6 7 0 0
BITMAP
20
24
DC
D8
D8
D8
70
ENDCHAR
STARTCHAR 1EEA
ENCODING 7914
SWIDTH 617 0
DWIDTH 6 0
BBX 7 9 0 0
BITMAP
20
10
CE
CC
CC
CC
CC
78
78
ENDCHAR
STARTCHAR 1EEB
ENCODING 7915
SWIDTH 514 0
DWIDTH 5 0
BBX 6 7 0 0
BITMAP
20
04
DC
D8
D8
D8
70
ENDCHAR
STARTCHAR 1EEC
ENCODING 7916
SWIDTH 617 0
DWIDTH 6 0
BBX 7 9 0 0
BITMAP
30
00
CE
CC
CC
CC
CC
78
78
ENDCHAR
STARTCHAR 1EED
ENCODING 7917
SWIDTH 514 0
DWIDTH 5 0
BBX 6 7 0 0
BITMAP
30
24
DC
D8
D8
D8
70
ENDCHAR
STARTCHAR 1EEE
ENCODING 7918
SWIDTH 617 0
DWIDTH 6 0
BBX 7 9 0 0
BITMAP
30
00
CE
CC
CC
CC
CC
78
78
ENDCHAR
STARTCHAR 1EEF
ENCODING 7919
SWIDTH 514 0
DWIDTH 5 0
BBX 6 7 0 0
BITMAP
30
04
DC
D8
D8
D8
70
ENDCHAR
STARTCHAR 1EF0
ENCODING 7920
SWIDTH 617 0
DWIDTH 6 0
BBX 7 9 0 -3
BITMAP
CE
CC
CC
CC
CC
78
78
00
30
ENDCHAR
STARTCHAR 1EF1
ENCODING 7921
SWIDTH 514 0
DWIDTH 5 0
BBX 6 9 0 -3
BITMAP
04
DC
D8
D8
D8
70
00
30
20
ENDCHAR
STARTCHAR 1EF2
ENCODING 7922
SWIDTH 514 0
DWIDTH 5 0
BBX 5 9 0 0
BITMAP
20
00
D8
D8
D8
78
30
30
30
ENDCHAR
STARTCHAR 1EF3
ENCODING 7923
SWIDTH 514 0
DWIDTH 5 0
BBX 5 9 0 -2
BITMAP
20
00
D8
D8
D8
D8
70
20
20
ENDCHAR
STARTCHAR 1EF4
ENCODING 7924
SWIDTH 514 0
DWIDTH 5 0
BBX 5 10 0 -3
BITMAP
D8
D8
D8
78
30
30
30
00
30
20
ENDCHAR
STARTCHAR 1EF5
ENCODING 7925
SWIDTH 514 0
DWIDTH 5 0
BBX 5 7 0 -3
BITMAP
D8
D8
D8
D8
70
20
38
ENDCHAR
STARTCHAR 1EF6
ENCODING 7926
SWIDTH 514 0
DWIDTH 5 0
BBX 5 9 0 0
BITMAP
70
20
D8
D8
D8
78
30
30
30
ENDCHAR
STARTCHAR 1EF7
ENCODING 7927
SWIDTH 514 0
DWIDTH 5 0
BBX 5 9 0 -2
BITMAP
30
20
D8
D8
D8
D8
70
20
20
ENDCHAR
STARTCHAR 1EF8
ENCODING 7928
SWIDTH 514 0
DWIDTH 5 0
BBX 5 9 0 0
BITMAP
30
00
D8
D8
D8
78
30
30
30
ENDCHAR
STARTCHAR 1EF9
ENCODING 7929
SWIDTH 514 0
DWIDTH 5 0
BBX 5 9 0 -2
BITMAP
30
00
D8
D8
D8
D8
70
20
20
ENDCHAR
STARTCHAR 2010
ENCODING 8208
SWIDTH 308 0
DWIDTH 3 0
BBX 3 1 0 2
BITMAP
E0
ENDCHAR
STARTCHAR 2013
ENCODING 8211
SWIDTH 411 0
DWIDTH 4 0
BBX 5 1 0 2
BITMAP
F8
ENDCHAR
STARTCHAR 2014
ENCODING 8212
SWIDTH 925 0
DWIDTH 9 0
BBX 10 1 0 2
BITMAP
FFC0
ENDCHAR
STARTCHAR 2018
ENCODING 8216
SWIDTH 205 0
DWIDTH 2 0
BBX 1 2 1 5
BITMAP
80
80
ENDCHAR
STARTCHAR 2019
ENCODING 8217
SWIDTH 205 0
DWIDTH 2 0
BBX 1 2 1 5
BITMAP
80
80
ENDCHAR
STARTCHAR 201A
ENCODING 8218
SWIDTH 205 0
DWIDTH 2 0
BBX 1 2 1 -1
BITMAP
80
80
ENDCHAR
STARTCHAR 201C
ENCODING 8220
SWIDTH 411 0
DWIDTH 4 0
BBX 3 2 1 5
BITMAP
A0
A0
ENDCHAR
STARTCHAR 201D
ENCODING 8221
SWIDTH 411 0
DWIDTH 4 0
BBX 3 2 1 5
BITMAP
A0
A0
ENDCHAR
STARTCHAR 201E
ENCODING 8222
SWIDTH 411 0
DWIDTH 4 0
BBX 3 2 1 -1
BITMAP
A0
A0
ENDCHAR
STARTCHAR 2020
ENCODING 8224
SWIDTH 411 0
DWIDTH 4 0
BBX 5 7 0 0
BITMAP
20
20
F8
20
20
20
20
ENDCHAR
STARTCHAR 2021
ENCODING 8225
SWIDTH 411 0
DWIDTH 4 0
BBX 5 7 0 0
BITMAP
20
20
F8
20
F8
F8
20
ENDCHAR
STARTCHAR 2022
ENCODING 8226
SWIDTH 514 0
DWIDTH 5 0
BBX 3 3 1 2
BITMAP
60
E0
60
ENDCHAR
STARTCHAR 2026
ENCODING 8230
SWIDTH 925 0
DWIDTH 9 0
BBX 8 2 1 0
BITMAP
9B
DB
ENDCHAR
STARTCHAR 2030
ENCODING 8240
SWIDTH 1234 0
DWIDTH 12 0
BBX 12 7 0 0
BITMAP
6200
D400
D800
6800
1770
1550
2760
ENDCHAR
STARTCHAR 2039
ENCODING 8249
SWIDTH 308 0
DWIDTH 3 0
BBX 2 3 1 1
BITMAP
C0
80
80
ENDCHAR
STARTCHAR 203A
ENCODING 8250
SWIDTH 308 0
DWIDTH 3 0
BBX 2 3 1 1
BITMAP
80
40
80
ENDCHAR
STARTCHAR 2044
ENCODING 8260
SWIDTH 102 0
DWIDTH 1 0
BBX 4 7 -1 0
BITMAP
10
20
20
40
40
80
80
ENDCHAR
STARTCHAR 20A3
ENCODING 8355
SWIDTH 822 0
DWIDTH 8 0
BBX 8 7 0 0
BITMAP
70
70
C5
F7
F4
C4
C4
ENDCHAR
STARTCHAR 20AB
ENCODING 8363
SWIDTH 411 0
DWIDTH 4 0
BBX 4 6 0 1
BITMAP
30
10
D0
90
60
60
ENDCHAR
STARTCHAR 2122
ENCODING 8482
SWIDTH 822 0
DWIDTH 8 0
BBX 6 3 1 4
BITMAP
D4
5C
5C
ENDCHAR
STARTCHAR 2126
ENCODING 8486
SWIDTH 720 0
DWIDTH 7 0
BBX 8 7 0 0
BITMAP
3C
66
46
46
66
24
E7
ENDCHAR
STARTCHAR 2202
ENCODING 8706
SWIDTH 514 0
DWIDTH 5 0
BBX 5 6 0 0
BITMAP
78
08
68
D8
D8
70
ENDCHAR
STARTCHAR 2206
ENCODING 8710
SWIDTH 617 0
DWIDTH 6 0
BBX 7 7 0 0
BITMAP
38
38
28
6C
6C
44
FE
ENDCHAR
STARTCHAR 220F
ENCODING 8719
SWIDTH 720 0
DWIDTH 7 0
BBX 6 9 1 -2
BITMAP
FC
FC
CC
CC
CC
CC
CC
CC
CC
ENDCHAR
STARTCHAR 2211
ENCODING 8721
SWIDTH 720 0
DWIDTH 7 0
BBX 7 9 0 -2
BITMAP
FE
60
30
18
18
30
30
7E
FE
ENDCHAR
STARTCHAR 2212
ENCODING 8722
SWIDTH 822 0
DWIDTH 8 0
BBX 6 1 1 2
BITMAP
FC
ENDCHAR
STARTCHAR 2219
ENCODING 8729
SWIDTH 205 0
DWIDTH 2 0
BBX 2 1 0 3
BITMAP
C0
ENDCHAR
STARTCHAR 221A
ENCODING 8730
SWIDTH 617 0
DWIDTH 6 0
BBX 6 8 1 0
BITMAP
0C
08
10
90
D0
60
60
60
ENDCHAR
STARTCHAR 221E
ENCODING 8734
SWIDTH 822 0
DWIDTH 8 0
BBX 6 4 1 1
BITMAP
CC
B4
B4
EC
ENDCHAR
STARTCHAR 222B
ENCODING 8747
SWIDTH 514 0
DWIDTH 5 0
BBX 6 9 0 -2
BITMAP
1C
10
30
30
30
30
20
E0
40
ENDCHAR
STARTCHAR 2248
ENCODING 8776
SWIDTH 822 0
DWIDTH 8 0
BBX 6 4 1 1
BITMAP
E0
9C
60
BC
ENDCHAR
STARTCHAR 2260
ENCODING 8800
SWIDTH 822 0
DWIDTH 8 0
BBX 6 6 1 0
BITMAP
08
08
FC
20
FC
40
ENDCHAR
STARTCHAR 2264
ENCODING 8804
SWIDTH 822 0
DWIDTH 8 0
BBX 6 6 1 0
BITMAP
0C
78
E0
3C
00
FC
ENDCHAR
STARTCHAR 2265
ENCODING 8805
SWIDTH 822 0
DWIDTH 8 0
BBX 6 6 1 0
BITMAP
C0
78
1C
F0
00
FC
ENDCHAR
STARTCHAR 22F2
ENCODING 8946
SWIDTH 822 0
DWIDTH 8 0
BBX 6 4 1 1
BITMAP
E0
9C
60
BC
ENDCHAR
STARTCHAR 255F
ENCODING 9567
SWIDTH 617 0
DWIDTH 6 0
BBX 6 7 0 0
BITMAP
30
78
CC
FC
CC
CC
CC
ENDCHAR
STARTCHAR 2560
ENCODING 9568
SWIDTH 514 0
DWIDTH 5 0
BBX 5 7 0 0
BITMAP
38
78
C0
F8
C0
78
38
ENDCHAR
STARTCHAR 2561
ENCODING 9569
SWIDTH 205 0
DWIDTH 2 0
BBX 1 7 1 0
BITMAP
80
80
80
80
80
80
80
ENDCHAR
STARTCHAR 2562
ENCODING 9570
SWIDTH 720 0
DWIDTH 7 0
BBX 7 7 0 0
BITMAP
38
7E
C6
C2
C6
7E
3C
ENDCHAR
STARTCHAR 2563
ENCODING 9571
SWIDTH 617 0
DWIDTH 6 0
BBX 6 7 0 0
BITMAP
CC
CC
CC
CC
CC
78
78
ENDCHAR
STARTCHAR 2564
ENCODING 9572
SWIDTH 514 0
DWIDTH 5 0
BBX 5 7 0 0
BITMAP
D8
D8
D8
78
30
30
30
ENDCHAR
STARTCHAR 2565
ENCODING 9573
SWIDTH 514 0
DWIDTH 5 0
BBX 5 5 0 0
BITMAP
70
F8
C8
C8
68
ENDCHAR
STARTCHAR 2566
ENCODING 9574
SWIDTH 514 0
DWIDTH 5 0
BBX 5 5 0 0
BITMAP
70
D8
F0
D8
70
ENDCHAR
STARTCHAR 2567
ENCODING 9575
SWIDTH 205 0
DWIDTH 2 0
BBX 2 7 0 0
BITMAP
C0
40
C0
C0
C0
C0
C0
ENDCHAR
STARTCHAR 2568
ENCODING 9576
SWIDTH 205 0
DWIDTH 2 0
BBX 2 5 0 0
BITMAP
C0
C0
C0
C0
C0
ENDCHAR
STARTCHAR 2569
ENCODING 9577
SWIDTH 514 0
DWIDTH 5 0
BBX 5 5 0 0
BITMAP
70
F8
C8
D8
70
ENDCHAR
STARTCHAR 256A
ENCODING 9578
SWIDTH 514 0
DWIDTH 5 0
BBX 5 5 0 0
BITMAP
D8
D8
D8
D8
70
ENDCHAR
STARTCHAR 256B
ENCODING 9579
SWIDTH 514 0
DWIDTH 5 0
BBX 5 7 0 -2
BITMAP
D8
D8
D8
D8
70
20
20
ENDCHAR
STARTCHAR 25CA
ENCODING 9674
SWIDTH 411 0
DWIDTH 4 0
BBX 5 10 0 -2
BITMAP
20
20
50
90
90
88
90
50
60
20
ENDCHAR
STARTCHAR 25CB
ENCODING 9675
SWIDTH 617 0
DWIDTH 6 0
BBX 2 3 2 7
BITMAP
40
80
C0
ENDCHAR
STARTCHAR 25CF
ENCODING 9679
SWIDTH 617 0
DWIDTH 6 0
BBX 2 3 2 7
BITMAP
C0
40
C0
ENDCHAR
STARTCHAR 25D8
ENCODING 9688
SWIDTH 617 0
DWIDTH 6 0
BBX 3 3 2 7
BITMAP
20
20
C0
ENDCHAR
STARTCHAR 25D9
ENCODING 9689
SWIDTH 617 0
DWIDTH 6 0
BBX 3 3 2 7
BITMAP
20
C0
C0
ENDCHAR
STARTCHAR F000
ENCODING 61440
SWIDTH 720 0
DWIDTH 7 0
BBX 6 8 1 0
BITMAP
08
10
FC
F8
F8
F8
FC
78
ENDCHAR
STARTCHAR F001
ENCODING 61441
SWIDTH 514 0
DWIDTH 5 0
BBX 5 7 0 0
BITMAP
78
68
E8
E8
C8
C8
C8
ENDCHAR
STARTCHAR F002
ENCODING 61442
SWIDTH 514 0
DWIDTH 5 0
BBX 5 7 0 0
BITMAP
68
68
E8
E8
C8
C8
C8
ENDCHAR
ENDFONT
